<mxfile host="app.diagrams.net" modified="2021-06-08T23:11:44.551Z" agent="5.0 (Windows NT 10.0; Win64; x64) AppleWebKit/537.36 (KHTML, like Gecko) Chrome/91.0.4472.77 Safari/537.36" etag="Oo0J8Ox1pdbUlsTqwx6J" version="14.7.6" type="github">
  <diagram id="UH1svQBvka56L7ojRFq8" name="Page-1">
    <mxGraphModel dx="1824" dy="982" grid="1" gridSize="22" guides="1" tooltips="1" connect="1" arrows="1" fold="1" page="1" pageScale="1" pageWidth="827" pageHeight="1169" math="0" shadow="0">
      <root>
        <mxCell id="0" />
        <mxCell id="1" parent="0" />
        <mxCell id="-wr-d9q1bcaWO33mYSYX-2" value="" style="rounded=1;whiteSpace=wrap;html=1;arcSize=3;fillColor=#f5f5f5;strokeColor=#666666;fontColor=#333333;" vertex="1" parent="1">
          <mxGeometry x="40" y="320" width="740" height="670" as="geometry" />
        </mxCell>
        <mxCell id="-wr-d9q1bcaWO33mYSYX-3" value="&lt;font style=&quot;font-size: 22px&quot;&gt;&lt;b&gt;COVID 19 TRACKER&lt;/b&gt;&lt;/font&gt;" style="text;html=1;strokeColor=none;fillColor=none;align=center;verticalAlign=middle;whiteSpace=wrap;rounded=0;" vertex="1" parent="1">
          <mxGeometry x="70" y="350" width="216" height="20" as="geometry" />
        </mxCell>
        <mxCell id="-wr-d9q1bcaWO33mYSYX-12" value="" style="group" vertex="1" connectable="0" parent="1">
          <mxGeometry x="70" y="418" width="128" height="66" as="geometry" />
        </mxCell>
        <mxCell id="-wr-d9q1bcaWO33mYSYX-8" value="" style="rounded=1;whiteSpace=wrap;html=1;" vertex="1" parent="-wr-d9q1bcaWO33mYSYX-12">
          <mxGeometry width="128" height="66" as="geometry" />
        </mxCell>
        <mxCell id="-wr-d9q1bcaWO33mYSYX-9" value="&lt;font style=&quot;font-size: 10px&quot;&gt;&lt;b&gt;COVID 19 CASES&lt;/b&gt;&lt;/font&gt;" style="text;html=1;strokeColor=none;fillColor=none;align=left;verticalAlign=middle;whiteSpace=wrap;rounded=0;" vertex="1" parent="-wr-d9q1bcaWO33mYSYX-12">
          <mxGeometry x="11" width="106" height="20" as="geometry" />
        </mxCell>
        <mxCell id="-wr-d9q1bcaWO33mYSYX-10" value="&lt;font style=&quot;font-size: 10px&quot;&gt;&lt;b&gt;+ 2,000&lt;br&gt;&lt;/b&gt;&lt;/font&gt;" style="text;html=1;strokeColor=none;fillColor=none;align=left;verticalAlign=middle;whiteSpace=wrap;rounded=0;" vertex="1" parent="-wr-d9q1bcaWO33mYSYX-12">
          <mxGeometry x="11" y="20" width="62" height="20" as="geometry" />
        </mxCell>
        <mxCell id="-wr-d9q1bcaWO33mYSYX-11" value="&lt;font style=&quot;font-size: 10px&quot;&gt;&lt;b&gt;1.2M Total&lt;/b&gt;&lt;/font&gt;" style="text;html=1;strokeColor=none;fillColor=none;align=left;verticalAlign=middle;whiteSpace=wrap;rounded=0;" vertex="1" parent="-wr-d9q1bcaWO33mYSYX-12">
          <mxGeometry x="11" y="40" width="84" height="20" as="geometry" />
        </mxCell>
        <mxCell id="-wr-d9q1bcaWO33mYSYX-13" value="" style="group" vertex="1" connectable="0" parent="1">
          <mxGeometry x="246" y="418" width="128" height="66" as="geometry" />
        </mxCell>
        <mxCell id="-wr-d9q1bcaWO33mYSYX-14" value="" style="rounded=1;whiteSpace=wrap;html=1;" vertex="1" parent="-wr-d9q1bcaWO33mYSYX-13">
          <mxGeometry width="128" height="66" as="geometry" />
        </mxCell>
        <mxCell id="-wr-d9q1bcaWO33mYSYX-15" value="&lt;font style=&quot;font-size: 10px&quot;&gt;&lt;b&gt;DEATHS&lt;/b&gt;&lt;/font&gt;" style="text;html=1;strokeColor=none;fillColor=none;align=left;verticalAlign=middle;whiteSpace=wrap;rounded=0;" vertex="1" parent="-wr-d9q1bcaWO33mYSYX-13">
          <mxGeometry x="11" width="106" height="20" as="geometry" />
        </mxCell>
        <mxCell id="-wr-d9q1bcaWO33mYSYX-16" value="&lt;font style=&quot;font-size: 10px&quot;&gt;&lt;b&gt;+ 2,000&lt;br&gt;&lt;/b&gt;&lt;/font&gt;" style="text;html=1;strokeColor=none;fillColor=none;align=left;verticalAlign=middle;whiteSpace=wrap;rounded=0;" vertex="1" parent="-wr-d9q1bcaWO33mYSYX-13">
          <mxGeometry x="11" y="20" width="62" height="20" as="geometry" />
        </mxCell>
        <mxCell id="-wr-d9q1bcaWO33mYSYX-17" value="&lt;font style=&quot;font-size: 10px&quot;&gt;&lt;b&gt;1.2M Total&lt;/b&gt;&lt;/font&gt;" style="text;html=1;strokeColor=none;fillColor=none;align=left;verticalAlign=middle;whiteSpace=wrap;rounded=0;" vertex="1" parent="-wr-d9q1bcaWO33mYSYX-13">
          <mxGeometry x="11" y="40" width="84" height="20" as="geometry" />
        </mxCell>
        <mxCell id="-wr-d9q1bcaWO33mYSYX-18" value="" style="group" vertex="1" connectable="0" parent="1">
          <mxGeometry x="422" y="418" width="128" height="66" as="geometry" />
        </mxCell>
        <mxCell id="-wr-d9q1bcaWO33mYSYX-19" value="" style="rounded=1;whiteSpace=wrap;html=1;" vertex="1" parent="-wr-d9q1bcaWO33mYSYX-18">
          <mxGeometry width="128" height="66" as="geometry" />
        </mxCell>
        <mxCell id="-wr-d9q1bcaWO33mYSYX-20" value="&lt;span style=&quot;font-size: 10px&quot;&gt;&lt;b&gt;RECOVERED&lt;/b&gt;&lt;/span&gt;" style="text;html=1;strokeColor=none;fillColor=none;align=left;verticalAlign=middle;whiteSpace=wrap;rounded=0;" vertex="1" parent="-wr-d9q1bcaWO33mYSYX-18">
          <mxGeometry x="11" width="106" height="20" as="geometry" />
        </mxCell>
        <mxCell id="-wr-d9q1bcaWO33mYSYX-21" value="&lt;font style=&quot;font-size: 10px&quot;&gt;&lt;b&gt;+ 2,000&lt;br&gt;&lt;/b&gt;&lt;/font&gt;" style="text;html=1;strokeColor=none;fillColor=none;align=left;verticalAlign=middle;whiteSpace=wrap;rounded=0;" vertex="1" parent="-wr-d9q1bcaWO33mYSYX-18">
          <mxGeometry x="11" y="20" width="62" height="20" as="geometry" />
        </mxCell>
        <mxCell id="-wr-d9q1bcaWO33mYSYX-22" value="&lt;font style=&quot;font-size: 10px&quot;&gt;&lt;b&gt;1.2M Total&lt;/b&gt;&lt;/font&gt;" style="text;html=1;strokeColor=none;fillColor=none;align=left;verticalAlign=middle;whiteSpace=wrap;rounded=0;" vertex="1" parent="-wr-d9q1bcaWO33mYSYX-18">
          <mxGeometry x="11" y="40" width="84" height="20" as="geometry" />
        </mxCell>
        <mxCell id="-wr-d9q1bcaWO33mYSYX-23" value="" style="rounded=1;whiteSpace=wrap;html=1;align=left;arcSize=4;" vertex="1" parent="1">
          <mxGeometry x="70" y="506" width="480" height="440" as="geometry" />
        </mxCell>
        <mxCell id="-wr-d9q1bcaWO33mYSYX-24" value="" style="html=1;verticalLabelPosition=bottom;align=center;labelBackgroundColor=#ffffff;verticalAlign=top;strokeWidth=2;strokeColor=#0080F0;shadow=0;dashed=0;shape=mxgraph.ios7.icons.map;rounded=1;" vertex="1" parent="1">
          <mxGeometry x="137" y="605" width="338" height="242" as="geometry" />
        </mxCell>
        <mxCell id="-wr-d9q1bcaWO33mYSYX-25" value="" style="group" vertex="1" connectable="0" parent="1">
          <mxGeometry x="352" y="341" width="176" height="38" as="geometry" />
        </mxCell>
        <mxCell id="-wr-d9q1bcaWO33mYSYX-26" value="" style="group" vertex="1" connectable="0" parent="-wr-d9q1bcaWO33mYSYX-25">
          <mxGeometry x="22" width="176" height="38" as="geometry" />
        </mxCell>
        <mxCell id="-wr-d9q1bcaWO33mYSYX-4" value="" style="rounded=1;whiteSpace=wrap;html=1;" vertex="1" parent="-wr-d9q1bcaWO33mYSYX-26">
          <mxGeometry width="176" height="38" as="geometry" />
        </mxCell>
        <mxCell id="-wr-d9q1bcaWO33mYSYX-5" value="&lt;b&gt;Worldwide&lt;br&gt;&lt;/b&gt;" style="text;html=1;strokeColor=none;fillColor=none;align=center;verticalAlign=middle;whiteSpace=wrap;rounded=0;" vertex="1" parent="-wr-d9q1bcaWO33mYSYX-26">
          <mxGeometry x="12" y="9" width="152" height="20" as="geometry" />
        </mxCell>
        <mxCell id="-wr-d9q1bcaWO33mYSYX-27" value="" style="rounded=1;whiteSpace=wrap;html=1;align=left;arcSize=7;" vertex="1" parent="1">
          <mxGeometry x="572" y="341" width="176" height="605" as="geometry" />
        </mxCell>
        <mxCell id="-wr-d9q1bcaWO33mYSYX-28" value="&lt;font style=&quot;font-size: 11px&quot;&gt;&lt;b style=&quot;font-size: 11px&quot;&gt;Cases By Country&lt;/b&gt;&lt;/font&gt;" style="text;html=1;strokeColor=none;fillColor=none;align=left;verticalAlign=middle;whiteSpace=wrap;rounded=0;fontSize=11;" vertex="1" parent="1">
          <mxGeometry x="608.5" y="350" width="103" height="20" as="geometry" />
        </mxCell>
        <mxCell id="-wr-d9q1bcaWO33mYSYX-29" value="&lt;font style=&quot;font-size: 11px&quot;&gt;&lt;b style=&quot;font-size: 11px&quot;&gt;Worldwide New Cases&lt;/b&gt;&lt;/font&gt;" style="text;html=1;strokeColor=none;fillColor=none;align=left;verticalAlign=middle;whiteSpace=wrap;rounded=0;fontSize=11;" vertex="1" parent="1">
          <mxGeometry x="594" y="728" width="132" height="20" as="geometry" />
        </mxCell>
        <mxCell id="-wr-d9q1bcaWO33mYSYX-32" value="" style="shape=table;html=1;whiteSpace=wrap;startSize=0;container=1;collapsible=0;childLayout=tableLayout;rounded=0;fontSize=11;align=left;" vertex="1" parent="1">
          <mxGeometry x="586" y="379" width="140" height="83" as="geometry" />
        </mxCell>
        <mxCell id="-wr-d9q1bcaWO33mYSYX-33" value="" style="shape=partialRectangle;html=1;whiteSpace=wrap;collapsible=0;dropTarget=0;pointerEvents=0;fillColor=none;top=0;left=0;bottom=0;right=0;points=[[0,0.5],[1,0.5]];portConstraint=eastwest;" vertex="1" parent="-wr-d9q1bcaWO33mYSYX-32">
          <mxGeometry width="140" height="28" as="geometry" />
        </mxCell>
        <mxCell id="-wr-d9q1bcaWO33mYSYX-34" value="" style="shape=partialRectangle;html=1;whiteSpace=wrap;connectable=0;fillColor=none;top=0;left=0;bottom=0;right=0;overflow=hidden;" vertex="1" parent="-wr-d9q1bcaWO33mYSYX-33">
          <mxGeometry width="47" height="28" as="geometry" />
        </mxCell>
        <mxCell id="-wr-d9q1bcaWO33mYSYX-35" value="" style="shape=partialRectangle;html=1;whiteSpace=wrap;connectable=0;fillColor=none;top=0;left=0;bottom=0;right=0;overflow=hidden;" vertex="1" parent="-wr-d9q1bcaWO33mYSYX-33">
          <mxGeometry x="47" width="46" height="28" as="geometry" />
        </mxCell>
        <mxCell id="-wr-d9q1bcaWO33mYSYX-36" value="" style="shape=partialRectangle;html=1;whiteSpace=wrap;connectable=0;fillColor=none;top=0;left=0;bottom=0;right=0;overflow=hidden;" vertex="1" parent="-wr-d9q1bcaWO33mYSYX-33">
          <mxGeometry x="93" width="47" height="28" as="geometry" />
        </mxCell>
        <mxCell id="-wr-d9q1bcaWO33mYSYX-37" value="" style="shape=partialRectangle;html=1;whiteSpace=wrap;collapsible=0;dropTarget=0;pointerEvents=0;fillColor=none;top=0;left=0;bottom=0;right=0;points=[[0,0.5],[1,0.5]];portConstraint=eastwest;" vertex="1" parent="-wr-d9q1bcaWO33mYSYX-32">
          <mxGeometry y="28" width="140" height="27" as="geometry" />
        </mxCell>
        <mxCell id="-wr-d9q1bcaWO33mYSYX-38" value="" style="shape=partialRectangle;html=1;whiteSpace=wrap;connectable=0;fillColor=none;top=0;left=0;bottom=0;right=0;overflow=hidden;" vertex="1" parent="-wr-d9q1bcaWO33mYSYX-37">
          <mxGeometry width="47" height="27" as="geometry" />
        </mxCell>
        <mxCell id="-wr-d9q1bcaWO33mYSYX-39" value="" style="shape=partialRectangle;html=1;whiteSpace=wrap;connectable=0;fillColor=none;top=0;left=0;bottom=0;right=0;overflow=hidden;" vertex="1" parent="-wr-d9q1bcaWO33mYSYX-37">
          <mxGeometry x="47" width="46" height="27" as="geometry" />
        </mxCell>
        <mxCell id="-wr-d9q1bcaWO33mYSYX-40" value="" style="shape=partialRectangle;html=1;whiteSpace=wrap;connectable=0;fillColor=none;top=0;left=0;bottom=0;right=0;overflow=hidden;" vertex="1" parent="-wr-d9q1bcaWO33mYSYX-37">
          <mxGeometry x="93" width="47" height="27" as="geometry" />
        </mxCell>
        <mxCell id="-wr-d9q1bcaWO33mYSYX-41" value="" style="shape=partialRectangle;html=1;whiteSpace=wrap;collapsible=0;dropTarget=0;pointerEvents=0;fillColor=none;top=0;left=0;bottom=0;right=0;points=[[0,0.5],[1,0.5]];portConstraint=eastwest;" vertex="1" parent="-wr-d9q1bcaWO33mYSYX-32">
          <mxGeometry y="55" width="140" height="28" as="geometry" />
        </mxCell>
        <mxCell id="-wr-d9q1bcaWO33mYSYX-42" value="" style="shape=partialRectangle;html=1;whiteSpace=wrap;connectable=0;fillColor=none;top=0;left=0;bottom=0;right=0;overflow=hidden;" vertex="1" parent="-wr-d9q1bcaWO33mYSYX-41">
          <mxGeometry width="47" height="28" as="geometry" />
        </mxCell>
        <mxCell id="-wr-d9q1bcaWO33mYSYX-43" value="" style="shape=partialRectangle;html=1;whiteSpace=wrap;connectable=0;fillColor=none;top=0;left=0;bottom=0;right=0;overflow=hidden;" vertex="1" parent="-wr-d9q1bcaWO33mYSYX-41">
          <mxGeometry x="47" width="46" height="28" as="geometry" />
        </mxCell>
        <mxCell id="-wr-d9q1bcaWO33mYSYX-44" value="" style="shape=partialRectangle;html=1;whiteSpace=wrap;connectable=0;fillColor=none;top=0;left=0;bottom=0;right=0;overflow=hidden;" vertex="1" parent="-wr-d9q1bcaWO33mYSYX-41">
          <mxGeometry x="93" width="47" height="28" as="geometry" />
        </mxCell>
        <mxCell id="-wr-d9q1bcaWO33mYSYX-46" value="" style="shape=table;html=1;whiteSpace=wrap;startSize=0;container=1;collapsible=0;childLayout=tableLayout;rounded=0;fontSize=11;align=left;" vertex="1" parent="1">
          <mxGeometry x="586" y="462" width="140" height="83" as="geometry" />
        </mxCell>
        <mxCell id="-wr-d9q1bcaWO33mYSYX-47" value="" style="shape=partialRectangle;html=1;whiteSpace=wrap;collapsible=0;dropTarget=0;pointerEvents=0;fillColor=none;top=0;left=0;bottom=0;right=0;points=[[0,0.5],[1,0.5]];portConstraint=eastwest;" vertex="1" parent="-wr-d9q1bcaWO33mYSYX-46">
          <mxGeometry width="140" height="28" as="geometry" />
        </mxCell>
        <mxCell id="-wr-d9q1bcaWO33mYSYX-48" value="" style="shape=partialRectangle;html=1;whiteSpace=wrap;connectable=0;fillColor=none;top=0;left=0;bottom=0;right=0;overflow=hidden;" vertex="1" parent="-wr-d9q1bcaWO33mYSYX-47">
          <mxGeometry width="47" height="28" as="geometry" />
        </mxCell>
        <mxCell id="-wr-d9q1bcaWO33mYSYX-49" value="" style="shape=partialRectangle;html=1;whiteSpace=wrap;connectable=0;fillColor=none;top=0;left=0;bottom=0;right=0;overflow=hidden;" vertex="1" parent="-wr-d9q1bcaWO33mYSYX-47">
          <mxGeometry x="47" width="46" height="28" as="geometry" />
        </mxCell>
        <mxCell id="-wr-d9q1bcaWO33mYSYX-50" value="" style="shape=partialRectangle;html=1;whiteSpace=wrap;connectable=0;fillColor=none;top=0;left=0;bottom=0;right=0;overflow=hidden;" vertex="1" parent="-wr-d9q1bcaWO33mYSYX-47">
          <mxGeometry x="93" width="47" height="28" as="geometry" />
        </mxCell>
        <mxCell id="-wr-d9q1bcaWO33mYSYX-51" value="" style="shape=partialRectangle;html=1;whiteSpace=wrap;collapsible=0;dropTarget=0;pointerEvents=0;fillColor=none;top=0;left=0;bottom=0;right=0;points=[[0,0.5],[1,0.5]];portConstraint=eastwest;" vertex="1" parent="-wr-d9q1bcaWO33mYSYX-46">
          <mxGeometry y="28" width="140" height="27" as="geometry" />
        </mxCell>
        <mxCell id="-wr-d9q1bcaWO33mYSYX-52" value="" style="shape=partialRectangle;html=1;whiteSpace=wrap;connectable=0;fillColor=none;top=0;left=0;bottom=0;right=0;overflow=hidden;" vertex="1" parent="-wr-d9q1bcaWO33mYSYX-51">
          <mxGeometry width="47" height="27" as="geometry" />
        </mxCell>
        <mxCell id="-wr-d9q1bcaWO33mYSYX-53" value="" style="shape=partialRectangle;html=1;whiteSpace=wrap;connectable=0;fillColor=none;top=0;left=0;bottom=0;right=0;overflow=hidden;" vertex="1" parent="-wr-d9q1bcaWO33mYSYX-51">
          <mxGeometry x="47" width="46" height="27" as="geometry" />
        </mxCell>
        <mxCell id="-wr-d9q1bcaWO33mYSYX-54" value="" style="shape=partialRectangle;html=1;whiteSpace=wrap;connectable=0;fillColor=none;top=0;left=0;bottom=0;right=0;overflow=hidden;" vertex="1" parent="-wr-d9q1bcaWO33mYSYX-51">
          <mxGeometry x="93" width="47" height="27" as="geometry" />
        </mxCell>
        <mxCell id="-wr-d9q1bcaWO33mYSYX-55" value="" style="shape=partialRectangle;html=1;whiteSpace=wrap;collapsible=0;dropTarget=0;pointerEvents=0;fillColor=none;top=0;left=0;bottom=0;right=0;points=[[0,0.5],[1,0.5]];portConstraint=eastwest;" vertex="1" parent="-wr-d9q1bcaWO33mYSYX-46">
          <mxGeometry y="55" width="140" height="28" as="geometry" />
        </mxCell>
        <mxCell id="-wr-d9q1bcaWO33mYSYX-56" value="" style="shape=partialRectangle;html=1;whiteSpace=wrap;connectable=0;fillColor=none;top=0;left=0;bottom=0;right=0;overflow=hidden;" vertex="1" parent="-wr-d9q1bcaWO33mYSYX-55">
          <mxGeometry width="47" height="28" as="geometry" />
        </mxCell>
        <mxCell id="-wr-d9q1bcaWO33mYSYX-57" value="" style="shape=partialRectangle;html=1;whiteSpace=wrap;connectable=0;fillColor=none;top=0;left=0;bottom=0;right=0;overflow=hidden;" vertex="1" parent="-wr-d9q1bcaWO33mYSYX-55">
          <mxGeometry x="47" width="46" height="28" as="geometry" />
        </mxCell>
        <mxCell id="-wr-d9q1bcaWO33mYSYX-58" value="" style="shape=partialRectangle;html=1;whiteSpace=wrap;connectable=0;fillColor=none;top=0;left=0;bottom=0;right=0;overflow=hidden;" vertex="1" parent="-wr-d9q1bcaWO33mYSYX-55">
          <mxGeometry x="93" width="47" height="28" as="geometry" />
        </mxCell>
        <mxCell id="-wr-d9q1bcaWO33mYSYX-59" value="" style="shape=table;html=1;whiteSpace=wrap;startSize=0;container=1;collapsible=0;childLayout=tableLayout;rounded=0;fontSize=11;align=left;" vertex="1" parent="1">
          <mxGeometry x="586" y="545" width="140" height="83" as="geometry" />
        </mxCell>
        <mxCell id="-wr-d9q1bcaWO33mYSYX-60" value="" style="shape=partialRectangle;html=1;whiteSpace=wrap;collapsible=0;dropTarget=0;pointerEvents=0;fillColor=none;top=0;left=0;bottom=0;right=0;points=[[0,0.5],[1,0.5]];portConstraint=eastwest;" vertex="1" parent="-wr-d9q1bcaWO33mYSYX-59">
          <mxGeometry width="140" height="28" as="geometry" />
        </mxCell>
        <mxCell id="-wr-d9q1bcaWO33mYSYX-61" value="" style="shape=partialRectangle;html=1;whiteSpace=wrap;connectable=0;fillColor=none;top=0;left=0;bottom=0;right=0;overflow=hidden;" vertex="1" parent="-wr-d9q1bcaWO33mYSYX-60">
          <mxGeometry width="47" height="28" as="geometry" />
        </mxCell>
        <mxCell id="-wr-d9q1bcaWO33mYSYX-62" value="" style="shape=partialRectangle;html=1;whiteSpace=wrap;connectable=0;fillColor=none;top=0;left=0;bottom=0;right=0;overflow=hidden;" vertex="1" parent="-wr-d9q1bcaWO33mYSYX-60">
          <mxGeometry x="47" width="46" height="28" as="geometry" />
        </mxCell>
        <mxCell id="-wr-d9q1bcaWO33mYSYX-63" value="" style="shape=partialRectangle;html=1;whiteSpace=wrap;connectable=0;fillColor=none;top=0;left=0;bottom=0;right=0;overflow=hidden;" vertex="1" parent="-wr-d9q1bcaWO33mYSYX-60">
          <mxGeometry x="93" width="47" height="28" as="geometry" />
        </mxCell>
        <mxCell id="-wr-d9q1bcaWO33mYSYX-64" value="" style="shape=partialRectangle;html=1;whiteSpace=wrap;collapsible=0;dropTarget=0;pointerEvents=0;fillColor=none;top=0;left=0;bottom=0;right=0;points=[[0,0.5],[1,0.5]];portConstraint=eastwest;" vertex="1" parent="-wr-d9q1bcaWO33mYSYX-59">
          <mxGeometry y="28" width="140" height="27" as="geometry" />
        </mxCell>
        <mxCell id="-wr-d9q1bcaWO33mYSYX-65" value="" style="shape=partialRectangle;html=1;whiteSpace=wrap;connectable=0;fillColor=none;top=0;left=0;bottom=0;right=0;overflow=hidden;" vertex="1" parent="-wr-d9q1bcaWO33mYSYX-64">
          <mxGeometry width="47" height="27" as="geometry" />
        </mxCell>
        <mxCell id="-wr-d9q1bcaWO33mYSYX-66" value="" style="shape=partialRectangle;html=1;whiteSpace=wrap;connectable=0;fillColor=none;top=0;left=0;bottom=0;right=0;overflow=hidden;" vertex="1" parent="-wr-d9q1bcaWO33mYSYX-64">
          <mxGeometry x="47" width="46" height="27" as="geometry" />
        </mxCell>
        <mxCell id="-wr-d9q1bcaWO33mYSYX-67" value="" style="shape=partialRectangle;html=1;whiteSpace=wrap;connectable=0;fillColor=none;top=0;left=0;bottom=0;right=0;overflow=hidden;" vertex="1" parent="-wr-d9q1bcaWO33mYSYX-64">
          <mxGeometry x="93" width="47" height="27" as="geometry" />
        </mxCell>
        <mxCell id="-wr-d9q1bcaWO33mYSYX-68" value="" style="shape=partialRectangle;html=1;whiteSpace=wrap;collapsible=0;dropTarget=0;pointerEvents=0;fillColor=none;top=0;left=0;bottom=0;right=0;points=[[0,0.5],[1,0.5]];portConstraint=eastwest;" vertex="1" parent="-wr-d9q1bcaWO33mYSYX-59">
          <mxGeometry y="55" width="140" height="28" as="geometry" />
        </mxCell>
        <mxCell id="-wr-d9q1bcaWO33mYSYX-69" value="" style="shape=partialRectangle;html=1;whiteSpace=wrap;connectable=0;fillColor=none;top=0;left=0;bottom=0;right=0;overflow=hidden;" vertex="1" parent="-wr-d9q1bcaWO33mYSYX-68">
          <mxGeometry width="47" height="28" as="geometry" />
        </mxCell>
        <mxCell id="-wr-d9q1bcaWO33mYSYX-70" value="" style="shape=partialRectangle;html=1;whiteSpace=wrap;connectable=0;fillColor=none;top=0;left=0;bottom=0;right=0;overflow=hidden;" vertex="1" parent="-wr-d9q1bcaWO33mYSYX-68">
          <mxGeometry x="47" width="46" height="28" as="geometry" />
        </mxCell>
        <mxCell id="-wr-d9q1bcaWO33mYSYX-71" value="" style="shape=partialRectangle;html=1;whiteSpace=wrap;connectable=0;fillColor=none;top=0;left=0;bottom=0;right=0;overflow=hidden;" vertex="1" parent="-wr-d9q1bcaWO33mYSYX-68">
          <mxGeometry x="93" width="47" height="28" as="geometry" />
        </mxCell>
        <mxCell id="-wr-d9q1bcaWO33mYSYX-72" value="" style="shape=table;html=1;whiteSpace=wrap;startSize=0;container=1;collapsible=0;childLayout=tableLayout;rounded=0;fontSize=11;align=left;" vertex="1" parent="1">
          <mxGeometry x="586" y="628" width="140" height="82" as="geometry" />
        </mxCell>
        <mxCell id="-wr-d9q1bcaWO33mYSYX-73" value="" style="shape=partialRectangle;html=1;whiteSpace=wrap;collapsible=0;dropTarget=0;pointerEvents=0;fillColor=none;top=0;left=0;bottom=0;right=0;points=[[0,0.5],[1,0.5]];portConstraint=eastwest;" vertex="1" parent="-wr-d9q1bcaWO33mYSYX-72">
          <mxGeometry width="140" height="27" as="geometry" />
        </mxCell>
        <mxCell id="-wr-d9q1bcaWO33mYSYX-74" value="" style="shape=partialRectangle;html=1;whiteSpace=wrap;connectable=0;fillColor=none;top=0;left=0;bottom=0;right=0;overflow=hidden;" vertex="1" parent="-wr-d9q1bcaWO33mYSYX-73">
          <mxGeometry width="47" height="27" as="geometry" />
        </mxCell>
        <mxCell id="-wr-d9q1bcaWO33mYSYX-75" value="" style="shape=partialRectangle;html=1;whiteSpace=wrap;connectable=0;fillColor=none;top=0;left=0;bottom=0;right=0;overflow=hidden;" vertex="1" parent="-wr-d9q1bcaWO33mYSYX-73">
          <mxGeometry x="47" width="46" height="27" as="geometry" />
        </mxCell>
        <mxCell id="-wr-d9q1bcaWO33mYSYX-76" value="" style="shape=partialRectangle;html=1;whiteSpace=wrap;connectable=0;fillColor=none;top=0;left=0;bottom=0;right=0;overflow=hidden;" vertex="1" parent="-wr-d9q1bcaWO33mYSYX-73">
          <mxGeometry x="93" width="47" height="27" as="geometry" />
        </mxCell>
        <mxCell id="-wr-d9q1bcaWO33mYSYX-77" value="" style="shape=partialRectangle;html=1;whiteSpace=wrap;collapsible=0;dropTarget=0;pointerEvents=0;fillColor=none;top=0;left=0;bottom=0;right=0;points=[[0,0.5],[1,0.5]];portConstraint=eastwest;" vertex="1" parent="-wr-d9q1bcaWO33mYSYX-72">
          <mxGeometry y="27" width="140" height="27" as="geometry" />
        </mxCell>
        <mxCell id="-wr-d9q1bcaWO33mYSYX-78" value="" style="shape=partialRectangle;html=1;whiteSpace=wrap;connectable=0;fillColor=none;top=0;left=0;bottom=0;right=0;overflow=hidden;" vertex="1" parent="-wr-d9q1bcaWO33mYSYX-77">
          <mxGeometry width="47" height="27" as="geometry" />
        </mxCell>
        <mxCell id="-wr-d9q1bcaWO33mYSYX-79" value="" style="shape=partialRectangle;html=1;whiteSpace=wrap;connectable=0;fillColor=none;top=0;left=0;bottom=0;right=0;overflow=hidden;" vertex="1" parent="-wr-d9q1bcaWO33mYSYX-77">
          <mxGeometry x="47" width="46" height="27" as="geometry" />
        </mxCell>
        <mxCell id="-wr-d9q1bcaWO33mYSYX-80" value="" style="shape=partialRectangle;html=1;whiteSpace=wrap;connectable=0;fillColor=none;top=0;left=0;bottom=0;right=0;overflow=hidden;" vertex="1" parent="-wr-d9q1bcaWO33mYSYX-77">
          <mxGeometry x="93" width="47" height="27" as="geometry" />
        </mxCell>
        <mxCell id="-wr-d9q1bcaWO33mYSYX-81" value="" style="shape=partialRectangle;html=1;whiteSpace=wrap;collapsible=0;dropTarget=0;pointerEvents=0;fillColor=none;top=0;left=0;bottom=0;right=0;points=[[0,0.5],[1,0.5]];portConstraint=eastwest;" vertex="1" parent="-wr-d9q1bcaWO33mYSYX-72">
          <mxGeometry y="54" width="140" height="28" as="geometry" />
        </mxCell>
        <mxCell id="-wr-d9q1bcaWO33mYSYX-82" value="" style="shape=partialRectangle;html=1;whiteSpace=wrap;connectable=0;fillColor=none;top=0;left=0;bottom=0;right=0;overflow=hidden;" vertex="1" parent="-wr-d9q1bcaWO33mYSYX-81">
          <mxGeometry width="47" height="28" as="geometry" />
        </mxCell>
        <mxCell id="-wr-d9q1bcaWO33mYSYX-83" value="" style="shape=partialRectangle;html=1;whiteSpace=wrap;connectable=0;fillColor=none;top=0;left=0;bottom=0;right=0;overflow=hidden;" vertex="1" parent="-wr-d9q1bcaWO33mYSYX-81">
          <mxGeometry x="47" width="46" height="28" as="geometry" />
        </mxCell>
        <mxCell id="-wr-d9q1bcaWO33mYSYX-84" value="" style="shape=partialRectangle;html=1;whiteSpace=wrap;connectable=0;fillColor=none;top=0;left=0;bottom=0;right=0;overflow=hidden;" vertex="1" parent="-wr-d9q1bcaWO33mYSYX-81">
          <mxGeometry x="93" width="47" height="28" as="geometry" />
        </mxCell>
        <mxCell id="-wr-d9q1bcaWO33mYSYX-85" value="" style="shape=image;html=1;verticalAlign=top;verticalLabelPosition=bottom;labelBackgroundColor=#ffffff;imageAspect=0;aspect=fixed;image=https://cdn2.iconfinder.com/data/icons/infographic-bar-vol-9-1/512/29-128.png;rounded=0;fontSize=11;" vertex="1" parent="1">
          <mxGeometry x="579" y="748" width="154" height="154" as="geometry" />
        </mxCell>
      </root>
    </mxGraphModel>
  </diagram>
</mxfile>
